<svg height="413pt" viewBox="0 -2 413.64136 413" width="413pt" xmlns="http://www.w3.org/2000/svg"><path d="m338.019531 26.425781c1.746094 0 3.492188-.667969 4.824219-2l12.457031-12.453125c2.664063-2.664062 2.664063-6.988281 0-9.652344-2.667969-2.667968-6.988281-2.667968-9.65625 0l-12.453125 12.453126c-2.664062 2.664062-2.664062 6.988281 0 9.652343 1.335938 1.332031 3.082032 2 4.828125 2zm0 0"/><path d="m308.964844 55.480469c1.746094 0 3.496094-.667969 4.828125-2l12.453125-12.453125c2.667968-2.667969 2.667968-6.988282 0-9.65625-2.664063-2.664063-6.988282-2.664063-9.652344 0l-12.453125 12.457031c-2.667969 2.664063-2.667969 6.984375 0 9.652344 1.332031 1.332031 3.078125 2 4.824219 2zm0 0"/><path d="m316.59375 24.425781c1.332031 1.332031 3.082031 2 4.828125 2 1.742187 0 3.492187-.667969 4.824219-2 2.667968-2.664062 2.667968-6.988281 0-9.652343l-12.453125-12.453126c-2.664063-2.667968-6.988281-2.667968-9.652344 0-2.667969 2.664063-2.667969 6.988282 0 9.652344zm0 0"/><path d="m345.644531 53.480469c1.335938 1.332031 3.082031 2 4.828125 2s3.492188-.667969 4.828125-2c2.664063-2.667969 2.664063-6.988281 0-9.652344l-12.457031-12.457031c-2.664062-2.664063-6.984375-2.664063-9.652344 0-2.664062 2.667968-2.664062 6.988281 0 9.65625zm0 0"/><path d="m65.519531 362.40625h-17.605469c-3.773437 0-6.828124 3.054688-6.828124 6.828125 0 3.769531 3.054687 6.824219 6.828124 6.824219h17.605469c3.773438 0 6.824219-3.054688 6.824219-6.824219 0-3.773437-3.050781-6.828125-6.824219-6.828125zm0 0"/><path d="m24.433594 362.40625h-17.605469c-3.773437 0-6.828125 3.054688-6.828125 6.828125 0 3.769531 3.054688 6.824219 6.828125 6.824219h17.605469c3.773437 0 6.824218-3.054688 6.824218-6.824219 0-3.773437-3.050781-6.828125-6.824218-6.828125zm0 0"/><path d="m29.347656 339.882812v17.609376c0 3.769531 3.050782 6.828124 6.824219 6.828124s6.828125-3.058593 6.828125-6.828124v-17.609376c0-3.769531-3.054688-6.824218-6.828125-6.824218s-6.824219 3.054687-6.824219 6.824218zm0 0"/><path d="m36.171875 374.144531c-3.773437 0-6.824219 3.058594-6.824219 6.828125v17.609375c0 3.769531 3.050782 6.828125 6.824219 6.828125s6.828125-3.058594 6.828125-6.828125v-17.609375c0-3.769531-3.054688-6.828125-6.828125-6.828125zm0 0"/><path d="m389.839844 362.40625c-11.613282 0-21.058594 9.445312-21.058594 21.058594 0 11.609375 9.445312 21.054687 21.058594 21.054687 11.613281 0 21.0625-9.445312 21.0625-21.054687 0-11.613282-9.449219-21.058594-21.0625-21.058594zm0 28.460938c-4.085938 0-7.40625-3.320313-7.40625-7.402344 0-4.085938 3.320312-7.40625 7.40625-7.40625 4.085937 0 7.40625 3.320312 7.40625 7.40625 0 4.082031-3.320313 7.402344-7.40625 7.402344zm0 0"/><path d="m128.671875 71.851562c1.332031 1.332032 3.082031 2 4.828125 2s3.492188-.667968 4.824219-2l5.238281-5.238281 5.234375 5.238281c1.332031 1.332032 3.082031 2 4.828125 2s3.492188-.667968 4.824219-2c2.667969-2.667968 2.667969-6.988281 0-9.65625l-5.234375-5.234374 5.234375-5.234376c2.667969-2.667968 2.667969-6.988281 0-9.65625-2.664063-2.664062-6.984375-2.664062-9.652344 0l-5.234375 5.238282-5.238281-5.238282c-2.664063-2.664062-6.984375-2.664062-9.652344 0-2.664063 2.667969-2.664063 6.988282 0 9.65625l5.238281 5.234376-5.238281 5.234374c-2.664063 2.667969-2.664063 6.988282 0 9.65625zm0 0"/><path d="m371.894531 219.316406c-3.976562-14.125-9.867187-27.207031-17.300781-39.050781l20.433594-41.914063s.003906-.003906.003906-.007812l26.902344-55.152344c1.320312-2.699218.71875-5.941406-1.480469-7.988281-2.191406-2.054687-5.464844-2.417969-8.070313-.917969l-51.988281 30.066406-41.242187 23.859376c-33.242188-18.121094-73.292969-23.8125-112.519532-12.773438-12.464843 3.507812-24.125 8.5-34.832031 14.730469-.3125-.265625-.644531-.515625-1.011719-.730469l-43.367187-25.085938-51.988281-30.066406c-2.601563-1.503906-5.878906-1.136718-8.074219.917969-2.199219 2.046875-2.800781 5.289063-1.480469 7.988281l26.898438 55.152344 23.5625 48.320312c-18.773438 33.527344-24.800782 74.203126-13.59375 114.03125 6.066406 21.542969 16.519531 40.953126 31.066406 57.707032 2.464844 2.847656 6.792969 3.148437 9.628906.675781 2.84375-2.46875 3.152344-6.785156.675782-9.628906-.757813-.875-1.460938-1.785157-2.195313-2.675781 15.667969-.226563 28.351563-13.023438 28.351563-28.742188 0-15.859375-12.90625-28.765625-28.765626-28.765625-10.015624 0-18.84375 5.152344-23.996093 12.9375-.558594-1.726563-1.121094-3.449219-1.617188-5.207031-20.394531-72.472656 21.972657-148.023438 94.433594-168.421875 72.460937-20.375 148.023437 21.960937 168.421875 94.441406 7.585938 26.960937 6.472656 54.347656-1.632812 79.167969-5.15625-7.773438-13.976563-12.914063-23.984376-12.914063-15.859374 0-28.765624 12.902344-28.765624 28.761719 0 15.695312 12.644531 28.472656 28.273437 28.738281-17.105469 20.824219-40.480469 36.828125-68.324219 44.667969-32 9.003906-66.089844 6.050781-96.007812-8.308594-3.40625-1.632812-7.480469-.1875-9.105469 3.203125-1.636719 3.402344-.203125 7.480469 3.199219 9.113281 20.417968 9.792969 42.59375 14.757813 64.890625 14.757813 13.652343 0 27.355469-1.863281 40.714843-5.625 79.710938-22.433594 126.320313-105.542969 103.886719-185.261719zm-250.386719 83.605469c8.332032 0 15.109376 6.777344 15.109376 15.113281 0 8.332032-6.777344 15.109375-15.109376 15.109375-8.332031 0-15.113281-6.777343-15.113281-15.109375 0-8.335937 6.777344-15.113281 15.113281-15.113281zm-28.621093-191.199219-12.035157 12.035156-12.898437-26.457031zm12.03125 61.382813-17.734375-36.371094 17.933594-17.9375 33.984374 19.660156c-13.320312 9.6875-24.824218 21.441407-34.183593 34.648438zm274.941406-75.804688-12.902344 26.457031-12.03125-12.035156zm-67.472656 39.027344 30.304687-17.53125 17.9375 17.9375-15 30.777344c-9.492187-12.113281-20.734375-22.597657-33.242187-31.183594zm5.632812 181.703125c0-8.332031 6.78125-15.109375 15.113281-15.109375 8.332032 0 15.113282 6.777344 15.113282 15.109375 0 8.335938-6.78125 15.113281-15.113282 15.113281-8.332031 0-15.113281-6.777343-15.113281-15.113281zm0 0"/><path d="m149.398438 372.128906c-3.824219-2.664062-7.53125-5.523437-11.003907-8.503906-2.875-2.445312-7.175781-2.128906-9.628906.738281-2.453125 2.859375-2.125 7.171875.734375 9.628907 3.828125 3.277343 7.898438 6.425781 12.101562 9.347656 1.191407.824218 2.546876 1.222656 3.890626 1.222656 2.160156 0 4.289062-1.023438 5.613281-2.929688 2.15625-3.097656 1.386719-7.351562-1.707031-9.503906zm0 0"/><path d="m277.828125 272.300781c3.773437 0 6.824219-3.058593 6.824219-6.828125 0-6.03125 4.90625-10.933594 10.933594-10.933594 6.027343 0 10.933593 4.902344 10.933593 10.933594 0 3.769532 3.054688 6.828125 6.828125 6.828125 3.773438 0 6.824219-3.058593 6.824219-6.828125 0-13.554687-11.027344-24.585937-24.585937-24.585937-13.558594 0-24.585938 11.03125-24.585938 24.585937 0 3.769532 3.054688 6.828125 6.828125 6.828125zm0 0"/><path d="m152.226562 240.886719c-13.558593 0-24.585937 11.03125-24.585937 24.585937 0 3.769532 3.050781 6.828125 6.824219 6.828125 3.773437 0 6.828125-3.058593 6.828125-6.828125 0-6.03125 4.90625-10.933594 10.933593-10.933594 6.027344 0 10.933594 4.902344 10.933594 10.933594 0 3.769532 3.050782 6.828125 6.824219 6.828125s6.828125-3.058593 6.828125-6.828125c0-13.554687-11.027344-24.585937-24.585938-24.585937zm0 0"/><path d="m38.175781 34.726562c0 4.875-3.953125 8.828126-8.828125 8.828126-4.878906 0-8.832031-3.953126-8.832031-8.828126s3.953125-8.828124 8.832031-8.828124c4.875 0 8.828125 3.953124 8.828125 8.828124zm0 0"/><path d="m413.640625 157.605469c0 4.875-3.953125 8.828125-8.828125 8.828125s-8.828125-3.953125-8.828125-8.828125 3.953125-8.828125 8.828125-8.828125 8.828125 3.953125 8.828125 8.828125zm0 0"/><path d="m263.667969 299.835938c-2.96875 1.191406-5.761719 1.878906-8.390625 2.207031-.015625 0-.035156-.003907-.050782 0-2.949218.371093-5.679687.257812-8.167968-.167969-.058594-.011719-.121094-.019531-.175782-.03125-.785156-.136719-1.546874-.308594-2.285156-.507812-.066406-.015626-.128906-.035157-.191406-.050782-9.351562-2.582031-14.738281-9.390625-15.066406-9.816406-.199219-.257812-.433594-.472656-.660156-.699219-.113282-.109375-.210938-.242187-.328126-.34375-.199218-.171875-.429687-.300781-.644531-.449219-.183593-.125-.351562-.269531-.546875-.375-.21875-.117187-.457031-.191406-.683594-.285156-.21875-.085937-.425781-.199218-.652343-.265625-.25-.070312-.519531-.097656-.78125-.140625-.21875-.039062-.425781-.101562-.648438-.117187-.003906 0-.003906 0-.003906 0h-.003906c-.15625-.011719-.3125.019531-.46875.019531-1.84375.003906-3.550781.671875-4.835938 1.964844-.636719.632812-1.265625 1.222656-1.898437 1.789062-.238282.214844-.472656.414063-.707032.617188-.375.328125-.753906.640625-1.128906.949218-.304687.242188-.609375.492188-.914062.726563-.226563.175781-.457032.335937-.683594.503906-6.347656 4.648438-12.375 6.277344-17.289062 6.574219-.328126.015625-.660157.039062-.980469.042969-.085938.003906-.171875.003906-.257813.003906-2.195312.023437-4.214844-.203125-6.003906-.5625-.164062-.03125-.328125-.046875-.492188-.066406-2.390624-.527344-3.875-1.199219-4.105468-1.308594-3.367188-1.648437-7.433594-.277344-9.113282 3.078125-1.6875 3.371094-.320312 7.472656 3.050782 9.15625.210937.105469 1.382812.671875 3.3125 1.3125 2.097656 11.734375 7.460937 36.351562 18.109375 55.480469 4.640625 8.324219 13.085937 13.4375 22.613281 13.6875.242188.003906.480469.007812.71875.007812 9.367188 0 17.882812-4.714843 22.894531-12.710937 9.867188-15.757813 15.527344-34.875 16.527344-55.574219 1.960937-.511719 3.957031-1.152344 6-1.96875 3.5-1.402344 5.207031-5.371094 3.804687-8.875-1.398437-3.5-5.40625-5.195313-8.871093-3.804687zm-29.035157 62.972656c-2.554687 4.070312-7.132812 6.339844-11.6875 6.300781-4.71875-.121094-8.738281-2.554687-11.035156-6.675781-7.414062-13.3125-12.730468-31.605469-15.757812-46.773438 7.832031-.214844 17.5-2.664062 27.378906-10.566406 3.023438 2.644531 6.882812 5.253906 11.425781 7.253906 4.015625 1.796875 8.710938 3.160156 14.046875 3.496094-1.109375 17.722656-5.929687 33.492188-14.371094 46.964844zm0 0"/></svg>